REM DIRINDEX 1\2\6,1\2\7,1\2\8,1\2\9,1\3\10,1\3\11,1\4\12,1\4\13,1\4\14,1\5\15,1\5\16,1\5\17
REM DIRNAME folder01,folder02,folder03,folder04,folder05,folder06,folder07,folder08,folder09,folder10,folder11,folder12,folder13,folder14,folder15,folder16,folder17
TITLE ""
FILE "1400_2_sec07_0667_0683.mp3" MP3
  TRACK 01 AUDIO
    TITLE "0:"
    INDEX 01 00:00:00
  TRACK 02 AUDIO
    TITLE "13:cjc029_2927"
    INDEX 01 00:00:19
  TRACK 03 AUDIO
    TITLE "0:"
    INDEX 01 00:01:36
  TRACK 04 AUDIO
    TITLE "14:cjc029_2928"
    INDEX 01 00:01:40
  TRACK 05 AUDIO
    TITLE "0:"
    INDEX 01 00:02:63
  TRACK 06 AUDIO
    TITLE "13:cjc029_2929"
    INDEX 01 00:03:45
  TRACK 07 AUDIO
    TITLE "0:"
    INDEX 01 00:04:66
  TRACK 08 AUDIO
    TITLE "14:cjc029_2930"
    INDEX 01 00:04:74
  TRACK 09 AUDIO
    TITLE "0:"
    INDEX 01 00:07:25
  TRACK 10 AUDIO
    TITLE "13:cjc029_2931"
    INDEX 01 00:08:05
  TRACK 11 AUDIO
    TITLE "0:"
    INDEX 01 00:09:32
  TRACK 12 AUDIO
    TITLE "14:cjc029_2932"
    INDEX 01 00:09:38
  TRACK 13 AUDIO
    TITLE "0:"
    INDEX 01 00:10:43
  TRACK 14 AUDIO
    TITLE "13:cjc029_2933"
    INDEX 01 00:11:29
  TRACK 15 AUDIO
    TITLE "0:"
    INDEX 01 00:12:44
  TRACK 16 AUDIO
    TITLE "14:cjc029_2934"
    INDEX 01 00:12:50
  TRACK 17 AUDIO
    TITLE "0:"
    INDEX 01 00:15:11
  TRACK 18 AUDIO
    TITLE "13:cjc029_2935"
    INDEX 01 00:15:70
  TRACK 19 AUDIO
    TITLE "0:"
    INDEX 01 00:17:10
  TRACK 20 AUDIO
    TITLE "14:cjc029_2936"
    INDEX 01 00:17:16
  TRACK 21 AUDIO
    TITLE "0:"
    INDEX 01 00:22:17
  TRACK 22 AUDIO
    TITLE "13:cjc029_2937"
    INDEX 01 00:22:74
  TRACK 23 AUDIO
    TITLE "0:"
    INDEX 01 00:24:20
  TRACK 24 AUDIO
    TITLE "14:cjc029_2938"
    INDEX 01 00:24:24
  TRACK 25 AUDIO
    TITLE "0:"
    INDEX 01 00:27:20
  TRACK 26 AUDIO
    TITLE "13:cjc029_2939"
    INDEX 01 00:28:04
  TRACK 27 AUDIO
    TITLE "0:"
    INDEX 01 00:29:09
  TRACK 28 AUDIO
    TITLE "14:cjc029_2940"
    INDEX 01 00:29:17
  TRACK 29 AUDIO
    TITLE "0:"
    INDEX 01 00:30:10
  TRACK 30 AUDIO
    TITLE "13:cjc029_2941"
    INDEX 01 00:30:67
  TRACK 31 AUDIO
    TITLE "0:"
    INDEX 01 00:32:03
  TRACK 32 AUDIO
    TITLE "14:cjc029_2942"
    INDEX 01 00:32:07
  TRACK 33 AUDIO
    TITLE "0:"
    INDEX 01 00:36:03
  TRACK 34 AUDIO
    TITLE "13:cjc029_2943"
    INDEX 01 00:36:66
  TRACK 35 AUDIO
    TITLE "0:"
    INDEX 01 00:38:18
  TRACK 36 AUDIO
    TITLE "14:cjc029_2944"
    INDEX 01 00:38:24
  TRACK 37 AUDIO
    TITLE "0:"
    INDEX 01 00:41:12
  TRACK 38 AUDIO
    TITLE "13:cjc029_2945"
    INDEX 01 00:41:67
  TRACK 39 AUDIO
    TITLE "0:"
    INDEX 01 00:43:05
  TRACK 40 AUDIO
    TITLE "14:cjc029_2946"
    INDEX 01 00:43:11
  TRACK 41 AUDIO
    TITLE "0:"
    INDEX 01 00:44:20
  TRACK 42 AUDIO
    TITLE "12:cjc029_2947"
    INDEX 01 00:45:69
  TRACK 43 AUDIO
    TITLE "0:"
    INDEX 01 00:47:36
  TRACK 44 AUDIO
    TITLE "13:cjc029_2948"
    INDEX 01 00:48:40
  TRACK 45 AUDIO
    TITLE "0:"
    INDEX 01 00:49:61
  TRACK 46 AUDIO
    TITLE "14:cjc029_2949"
    INDEX 01 00:49:67
  TRACK 47 AUDIO
    TITLE "0:"
    INDEX 01 00:53:47
  TRACK 48 AUDIO
    TITLE "13:cjc029_2950"
    INDEX 01 00:54:29
  TRACK 49 AUDIO
    TITLE "0:"
    INDEX 01 00:55:44
  TRACK 50 AUDIO
    TITLE "14:cjc029_2951"
    INDEX 01 00:55:50
  TRACK 51 AUDIO
    TITLE "0:"
    INDEX 01 00:56:72
  TRACK 52 AUDIO
    TITLE "13:cjc029_2952"
    INDEX 01 00:57:54
  TRACK 53 AUDIO
    TITLE "0:"
    INDEX 01 00:58:58
  TRACK 54 AUDIO
    TITLE "14:cjc029_2953"
    INDEX 01 00:58:64
  TRACK 55 AUDIO
    TITLE "0:"
    INDEX 01 01:01:62
  TRACK 56 AUDIO
    TITLE "13:cjc029_2954"
    INDEX 01 01:02:44
  TRACK 57 AUDIO
    TITLE "0:"
    INDEX 01 01:03:53
  TRACK 58 AUDIO
    TITLE "14:cjc029_2955"
    INDEX 01 01:03:57
  TRACK 59 AUDIO
    TITLE "0:"
    INDEX 01 01:08:60
  TRACK 60 AUDIO
    TITLE "13:cjc029_2956"
    INDEX 01 01:09:44
  TRACK 61 AUDIO
    TITLE "0:"
    INDEX 01 01:10:67
  TRACK 62 AUDIO
    TITLE "14:cjc029_2957"
    INDEX 01 01:10:73
  TRACK 63 AUDIO
    TITLE "0:"
    INDEX 01 01:16:26
  TRACK 64 AUDIO
    TITLE "13:cjc029_2958"
    INDEX 01 01:17:08
  TRACK 65 AUDIO
    TITLE "0:"
    INDEX 01 01:18:09
  TRACK 66 AUDIO
    TITLE "14:cjc029_2959"
    INDEX 01 01:18:11
  TRACK 67 AUDIO
    TITLE "0:"
    INDEX 01 01:19:34
  TRACK 68 AUDIO
    TITLE "13:cjc029_2960"
    INDEX 01 01:20:14
  TRACK 69 AUDIO
    TITLE "0:"
    INDEX 01 01:21:31
  TRACK 70 AUDIO
    TITLE "14:cjc029_2961"
    INDEX 01 01:21:35
  TRACK 71 AUDIO
    TITLE "0:"
    INDEX 01 01:24:10
